<svg xmlns="http://www.w3.org/2000/svg" version="1.0" width="256.000000pt" height="256.000000pt" viewBox="0 0 256.000000 256.000000" preserveAspectRatio="xMidYMid meet">

<g transform="translate(0.000000,256.000000) scale(0.100000,-0.100000)" fill="#03a9f4" stroke="none">
<path d="M1170 2544 c-79 -21 -135 -57 -227 -147 l-82 -80 -38 16 c-21 8 -127 58 -236 111 -109 53 -209 99 -223 102 -21 5 -35 -4 -89 -58 -98 -98 -102 -89 135 -270 l200 -153 -123 -123 c-117 -118 -123 -123 -157 -118 -19 3 -65 8 -103 11 l-67 7 -71 -69 c-80 -76 -93 -96 -84 -122 6 -20 58 -45 118 -56 21 -4 40 -11 42 -16 3 -4 -2 -48 -11 -96 -13 -68 -15 -125 -12 -253 5 -163 5 -164 -23 -227 -68 -151 -119 -366 -119 -498 1 -140 48 -273 129 -358 97 -102 203 -141 386 -141 157 0 299 32 470 107 l70 30 210 2 c181 1 220 4 285 22 119 33 230 79 316 131 65 39 80 52 82 75 4 33 -13 57 -40 57 -10 0 -43 -15 -72 -34 -92 -58 -288 -136 -345 -136 -7 0 -11 28 -11 78 0 102 -25 154 -95 197 -48 30 -51 30 -218 35 l-169 5 -23 27 c-13 15 -27 47 -30 72 -15 97 -63 135 -184 143 -92 7 -125 24 -152 80 -17 35 -18 48 -10 80 13 46 55 89 96 98 17 3 40 8 52 11 31 6 63 43 63 71 0 13 11 35 25 48 24 25 27 25 192 25 150 0 171 -2 201 -20 62 -38 72 -68 72 -221 0 -125 2 -139 23 -170 26 -39 70 -58 138 -58 86 -1 119 -52 119 -182 0 -70 10 -89 46 -89 35 0 54 36 54 102 0 88 -18 155 -52 194 -43 49 -83 68 -158 74 l-65 5 -5 145 c-7 160 -16 195 -70 248 -62 63 -78 67 -274 70 -98 2 -194 1 -213 -3 -43 -8 -109 -66 -123 -110 -9 -26 -18 -35 -43 -41 -197 -42 -245 -309 -76 -421 33 -22 56 -28 130 -33 49 -4 94 -11 99 -16 5 -5 14 -34 20 -64 13 -67 50 -117 110 -147 40 -21 59 -23 186 -23 151 0 180 -5 213 -41 18 -19 21 -35 21 -106 l0 -83 -109 0 c-118 0 -219 16 -321 50 -320 107 -579 375 -671 693 l-23 79 34 61 c18 34 52 91 74 126 l40 64 19 -56 c30 -92 62 -90 161 13 l68 70 -7 107 -7 108 121 120 c66 65 122 117 124 115 2 -3 70 -91 151 -197 80 -105 155 -195 166 -198 13 -4 31 1 49 15 45 31 111 110 111 132 0 10 -52 127 -115 260 l-116 242 48 49 c52 53 135 110 250 172 l73 39 76 -22 c152 -45 301 -131 414 -239 l65 -62 -70 -1 c-38 0 -86 -5 -106 -10 -88 -25 -169 -109 -189 -196 -24 -102 -20 -97 -88 -115 -107 -28 -161 -101 -162 -215 0 -77 30 -137 89 -179 l43 -30 225 -3 c124 -2 237 -1 249 2 32 8 42 50 19 76 -17 19 -32 20 -232 20 -233 0 -258 5 -281 55 -7 14 -12 46 -12 71 0 61 37 99 106 110 72 10 119 60 129 134 9 69 36 118 82 150 32 22 51 26 152 31 114 5 116 5 138 -19 28 -33 96 -171 123 -252 81 -241 64 -543 -44 -770 -32 -67 -33 -105 -6 -120 37 -20 60 -2 92 69 87 190 113 323 106 545 -5 155 -5 163 19 216 67 148 110 313 119 459 12 174 -38 323 -139 419 -100 94 -196 127 -372 126 -180 0 -334 -41 -554 -145 -68 -33 -125 -59 -126 -59 -1 0 0 40 3 89 4 84 4 89 -19 105 -29 20 -104 20 -179 0z m98 -128 c-8 -70 -42 -123 -149 -232 -64 -66 -99 -109 -99 -123 0 -12 52 -130 115 -263 112 -233 115 -242 98 -260 -18 -17 -24 -11 -171 182 -130 171 -157 200 -179 200 -21 0 -60 -34 -181 -152 -84 -84 -157 -162 -162 -173 -4 -11 -3 -65 2 -119 8 -87 8 -100 -8 -117 -9 -10 -20 -19 -24 -19 -4 0 -17 37 -29 83 -50 183 -50 184 -79 196 -15 6 -76 24 -136 40 -59 17 -110 32 -112 34 -2 2 6 13 19 24 21 19 28 19 126 10 l103 -9 160 158 c169 169 181 184 172 208 -3 9 -96 84 -205 168 -192 147 -198 153 -181 171 18 17 26 14 248 -94 126 -61 242 -115 258 -120 26 -8 35 -2 131 91 107 102 142 127 210 146 74 22 78 20 73 -30z m887 33 c258 -48 360 -285 271 -630 -14 -52 -32 -112 -42 -134 -17 -40 -17 -40 -27 -15 -115 281 -294 487 -537 617 -41 22 -97 49 -123 58 -26 10 -44 21 -40 26 15 13 167 59 243 73 95 17 180 19 255 5z m-1814 -915 c3 -2 12 -23 18 -46 l12 -43 -66 -100 -67 -100 5 100 c2 55 10 124 17 153 12 53 12 53 43 46 18 -3 35 -8 38 -10z m-73 -784 c130 -248 336 -430 622 -547 25 -10 25 -10 -15 -27 -22 -10 -82 -28 -134 -42 -273 -71 -477 -25 -577 132 -61 95 -78 224 -49 379 19 108 30 148 66 240 l12 30 15 -40 c9 -22 36 -78 60 -125z" fill="#03a9f4"/>
<path d="M2060 581 c-16 -31 -12 -49 15 -67 23 -15 27 -15 50 0 27 18 33 54 13 74 -19 19 -66 15 -78 -7z" fill="#03a9f4"/>
</g>
</svg>